External Loads File
version=1
nRows=93
nColumns=13
Range=5.000000e-03-10 seconds
endheader
time 	forceRightX 	forceRightY 	forceRightZ 	pointRightX 	pointRightY 	pointRightZ 	forceLeftX 	forceLeftY 	forceLeftZ 	pointLeftX 	pointLeftY 	pointLeftZ 		
2.505000 -61.104967 -87.915795 -0.000000 0.179449 0.417312 -0.109345 -94.073525 1055.863914 -0.000000 0.383890 0.198987 -0.360935
2.510000 -69.880939 -88.280645 -0.000000 0.186114 0.425975 -0.109811 -72.131818 1029.770340 -0.000000 0.383384 0.190796 -0.366437
2.515000 -79.994931 -85.583250 -0.000000 0.193186 0.434120 -0.110028 -22.231998 996.066995 -0.000000 0.371198 0.183069 -0.358744
2.520000 -87.529970 -82.576776 -0.000000 0.200374 0.442192 -0.111093 9.764906 952.325159 -0.000000 0.364712 0.175679 -0.358756
2.525000 -93.702829 -77.971988 -0.000000 0.207896 0.449303 -0.111176 37.564871 900.263600 -0.000000 0.357916 0.168916 -0.358666
2.530000 -98.648014 -71.376908 -0.000000 0.215862 0.455749 -0.111660 61.999449 840.963991 -0.000000 0.350872 0.162613 -0.358571
2.535000 -102.360967 -62.647748 -0.000000 0.223906 0.461907 -0.111931 82.607440 775.878073 -0.000000 0.343457 0.157011 -0.358452
2.540000 -104.861766 -51.682993 -0.000000 0.232233 0.467525 -0.112099 99.981420 706.728490 -0.000000 0.335682 0.151892 -0.358344
2.545000 -106.041621 -38.612645 -0.000000 0.240845 0.472498 -0.112101 114.248452 635.548411 -0.000000 0.327547 0.147594 -0.358209
2.550000 -105.748472 -23.654598 -0.000000 0.249456 0.476890 -0.112222 125.937836 564.439243 -0.000000 0.318911 0.143938 -0.358075
2.555000 -103.817846 -7.113474 -0.000000 0.258052 0.480663 -0.112255 135.560720 495.358860 -0.000000 0.309845 0.141108 -0.357895
2.560000 -100.171677 10.757910 -0.000000 0.266670 0.483819 -0.112123 143.898363 429.701897 -0.000000 0.300393 0.138831 -0.357643
2.565000 -94.886803 29.707665 -0.000000 0.275055 0.486441 -0.111969 151.150952 368.271236 -0.000000 0.290575 0.137183 -0.357434
2.570000 -88.222815 49.779472 -0.000000 0.283232 0.488484 -0.111842 157.577374 311.071044 -0.000000 0.280497 0.136267 -0.357180
2.575000 -80.614615 71.301104 -0.000000 0.291132 0.489727 -0.111819 162.977677 257.673996 -0.000000 0.270327 0.136087 -0.356866
2.580000 -72.608492 94.930070 -0.000000 0.298805 0.490350 -0.111499 166.966987 207.447004 -0.000000 0.260181 0.136558 -0.357010
2.585000 -64.873253 121.449085 -0.000000 0.306248 0.490195 -0.111404 168.830210 160.036410 -0.000000 0.250350 0.137609 -0.356397
2.590000 -58.078655 151.669562 -0.000000 0.313246 0.489334 -0.110920 167.967440 115.384855 -0.000000 0.240749 0.139174 -0.356318
2.595000 -52.981211 186.178894 -0.000000 0.319913 0.487613 -0.110700 163.991710 73.845893 -0.000000 0.231875 0.141370 -0.356024
2.600000 -49.858793 225.286377 -0.000000 0.326282 0.484817 -0.110366 157.087566 35.584684 -0.000000 0.223204 0.144198 -0.355925
2.605000 -49.555492 268.583685 -0.000000 0.332277 0.481594 -0.109733 147.573053 1.403919 -0.000000 0.214933 0.147403 -0.355476
2.610000 -52.086185 315.305612 -0.000000 0.338260 0.477473 -0.109238 136.188361 -28.416956 -0.000000 0.206990 0.151306 -0.355046
2.615000 -57.614970 364.173103 -0.000000 0.344219 0.472624 -0.109001 123.733938 -53.417642 -0.000000 0.199217 0.155719 -0.355103
2.620000 -66.072034 413.594960 -0.000000 0.350175 0.466924 -0.108812 111.044747 -73.286804 -0.000000 0.191722 0.160657 -0.354640
2.625000 -76.981530 461.878214 -0.000000 0.356200 0.460494 -0.108496 98.838385 -87.929160 -0.000000 0.184520 0.166251 -0.354389
2.630000 -89.954658 507.382069 -0.000000 0.362132 0.453343 -0.108160 87.732760 -97.377502 -0.000000 0.177577 0.172318 -0.354168
2.635000 -104.392323 548.753202 -0.000000 0.367974 0.445625 -0.107840 78.170597 -101.895737 -0.000000 0.170970 0.178897 -0.354137
2.640000 -119.197897 585.117222 -0.000000 0.373862 0.437180 -0.107675 70.363229 -101.997970 -0.000000 0.164780 0.185958 -0.354114
2.645000 -134.786445 615.747991 -0.000000 0.379464 0.428551 -0.107576 64.647098 -98.213532 -0.000000 0.159014 0.193361 -0.354339
2.650000 -150.407341 640.632359 -0.000000 0.384683 0.419500 -0.107403 60.985118 -91.415858 -0.000000 0.153701 0.201142 -0.354275
2.655000 -165.061147 660.374339 -0.000000 0.389719 0.410024 -0.107381 59.182315 -82.606585 -0.000000 0.148884 0.209466 -0.354250
2.660000 -178.641244 675.867982 -0.000000 0.394423 0.400008 -0.107208 59.074284 -72.753345 -0.000000 0.144555 0.218139 -0.354340
2.665000 -190.992522 688.299941 -0.000000 0.398993 0.389872 -0.107016 60.380102 -62.776031 -0.000000 0.140671 0.227293 -0.354351
2.670000 -201.951043 698.896316 -0.000000 0.403142 0.379420 -0.106977 62.716844 -53.398823 -0.000000 0.137334 0.236848 -0.354330
2.675000 -211.299825 708.743003 -0.000000 0.406835 0.368713 -0.107015 65.657697 -45.088194 -0.000000 0.134652 0.246732 -0.354340
2.680000 -219.300450 718.526688 -0.000000 0.409951 0.358011 -0.107116 68.820197 -38.070772 -0.000000 0.132492 0.256783 -0.354301
2.685000 -225.332322 728.967069 -0.000000 0.412550 0.347230 -0.107107 71.807324 -32.588119 -0.000000 0.130966 0.267000 -0.354270
2.690000 -228.363421 740.746165 -0.000000 0.414587 0.336243 -0.107131 74.272544 -28.960945 -0.000000 0.130022 0.277502 -0.354260
2.695000 -228.957600 753.860809 -0.000000 0.416080 0.325240 -0.107345 75.963466 -27.376631 -0.000000 0.129664 0.288108 -0.354231
2.700000 -225.542621 768.736727 -0.000000 0.417060 0.314061 -0.107383 76.526556 -28.145253 -0.000000 0.129862 0.299131 -0.354270
2.705000 -219.242657 784.807829 -0.000000 0.417606 0.302868 -0.107767 75.685016 -31.120997 -0.000000 0.130661 0.310231 -0.354330
2.710000 -211.103548 801.498833 -0.000000 0.417147 0.291881 -0.107530 73.179384 -35.973009 -0.000000 0.132098 0.321171 -0.354268
2.715000 -199.934050 818.833846 -0.000000 0.416239 0.280915 -0.107311 68.745177 -42.416149 -0.000000 0.134127 0.332200 -0.354237
2.720000 -185.525609 836.522778 -0.000000 0.414451 0.270138 -0.107517 62.318715 -49.984387 -0.000000 0.136769 0.343475 -0.354129
2.725000 -170.573339 853.630415 -0.000000 0.412067 0.259547 -0.107732 54.227409 -58.053723 -0.000000 0.140132 0.354026 -0.354198
2.730000 -153.044943 870.211030 -0.000000 0.409037 0.249231 -0.107742 44.658073 -66.445454 -0.000000 0.143989 0.364669 -0.353967
2.735000 -132.596833 885.781728 -0.000000 0.405189 0.239104 -0.107650 33.905990 -74.863332 -0.000000 0.148338 0.375327 -0.353787
2.740000 -109.489436 899.678121 -0.000000 0.400837 0.229220 -0.107699 22.299870 -82.975318 -0.000000 0.153278 0.386034 -0.353550
2.745000 -86.036839 911.015556 -0.000000 0.395935 0.219768 -0.107632 10.378214 -90.416603 -0.000000 0.158766 0.396077 -0.353153
2.750000 -59.747774 919.461212 -0.000000 0.390351 0.210671 -0.107502 -1.766100 -96.937155 -0.000000 0.165102 0.405993 -0.352903
2.755000 -34.615904 924.143698 -0.000000 0.384252 0.201941 -0.107359 -13.415837 -102.308734 -0.000000 0.171081 0.415300 -0.352159
2.760000 -8.312750 924.652920 -0.000000 0.377608 0.193622 -0.107167 -24.590014 -106.403996 -0.000000 0.177661 0.424220 -0.351769
2.765000 19.271498 920.300469 -0.000000 0.370543 0.185835 -0.106906 -35.208256 -109.075687 -0.000000 0.185086 0.432819 -0.351833
2.770000 45.721481 910.482178 -0.000000 0.363049 0.178500 -0.106578 -44.991688 -110.241621 -0.000000 0.192676 0.440651 -0.351554
2.775000 71.165866 894.684385 -0.000000 0.355205 0.171715 -0.106302 -54.025469 -109.689313 -0.000000 0.200609 0.447844 -0.351546
2.780000 95.556128 872.462120 -0.000000 0.347013 0.165587 -0.106075 -62.423162 -107.130861 -0.000000 0.208941 0.454588 -0.351606
2.785000 116.993003 843.803151 -0.000000 0.338637 0.160064 -0.105812 -70.098289 -102.376272 -0.000000 0.217285 0.460637 -0.351618
2.790000 136.668484 808.704794 -0.000000 0.329918 0.155246 -0.105537 -77.326496 -94.999167 -0.000000 0.226084 0.466008 -0.351779
2.795000 153.757172 767.850530 -0.000000 0.320977 0.151017 -0.105366 -84.029076 -84.732498 -0.000000 0.235132 0.470708 -0.351986
2.800000 167.855121 722.427979 -0.000000 0.311845 0.147637 -0.105266 -90.011787 -71.342388 -0.000000 0.244323 0.474710 -0.352375
2.805000 179.798343 673.810994 -0.000000 0.302450 0.144921 -0.105248 -95.041792 -54.515992 -0.000000 0.253798 0.478055 -0.352652
2.810000 189.333165 623.838678 -0.000000 0.292710 0.142937 -0.105153 -98.647650 -34.156928 -0.000000 0.263117 0.480971 -0.353026
2.815000 196.919945 574.066477 -0.000000 0.282605 0.141580 -0.104987 -100.373647 -10.231335 -0.000000 0.272163 0.483251 -0.353335
2.820000 202.733227 525.699581 -0.000000 0.272562 0.140634 -0.104953 -99.853771 17.035609 -0.000000 0.280983 0.484277 -0.353764
2.825000 207.834569 478.922839 -0.000000 0.262305 0.140860 -0.104884 -96.987335 47.459069 -0.000000 0.289508 0.485257 -0.354163
2.830000 211.969734 433.663714 -0.000000 0.252090 0.141689 -0.104652 -92.141718 80.697857 -0.000000 0.297542 0.485732 -0.354444
2.835000 215.312709 389.059720 -0.000000 0.242007 0.142874 -0.104462 -86.127422 116.693914 -0.000000 0.305212 0.485710 -0.354624
2.840000 217.889374 343.876204 -0.000000 0.232153 0.144785 -0.104100 -79.965272 155.435654 -0.000000 0.312623 0.484907 -0.354770
2.845000 219.252523 297.015715 -0.000000 0.222655 0.147356 -0.104021 -74.767148 196.605292 -0.000000 0.319784 0.483298 -0.354951
2.850000 219.005944 247.535120 -0.000000 0.213487 0.150782 -0.103932 -71.366660 239.490624 -0.000000 0.326791 0.480936 -0.355193
2.855000 216.319511 195.291723 -0.000000 0.204894 0.154857 -0.103864 -70.617220 282.863972 -0.000000 0.333627 0.477601 -0.355588
2.860000 210.582485 140.683609 -0.000000 0.196858 0.159476 -0.103747 -73.073630 325.337450 -0.000000 0.340378 0.473541 -0.355772
2.865000 201.322967 84.884393 -0.000000 0.189447 0.164585 -0.103639 -79.321509 365.555914 -0.000000 0.346959 0.468875 -0.355692
2.870000 188.590197 29.147539 -0.000000 0.182445 0.170257 -0.103742 -88.916750 402.671180 -0.000000 0.353601 0.463275 -0.355693
2.875000 172.505400 -24.288156 -0.000000 0.176080 0.176227 -0.103648 -102.287710 436.090952 -0.000000 0.360057 0.456689 -0.356176
2.880000 153.655968 -73.554480 -0.000000 0.170116 0.182762 -0.103574 -118.586921 465.988042 -0.000000 0.366532 0.449416 -0.356506
2.885000 132.867157 -116.669665 -0.000000 0.164519 0.189734 -0.103303 -137.184777 492.866425 -0.000000 0.372967 0.441468 -0.356930
2.890000 111.288797 -151.975030 -0.000000 0.159442 0.197032 -0.103329 -157.504114 517.371485 -0.000000 0.379345 0.432985 -0.357461
2.895000 89.998229 -178.538065 -0.000000 0.154778 0.204809 -0.103356 -178.173904 540.366633 -0.000000 0.385350 0.423761 -0.358131
2.900000 70.012516 -196.004958 -0.000000 0.150522 0.212929 -0.103483 -197.952140 562.631918 -0.000000 0.391180 0.413910 -0.358982
2.905000 52.693239 -204.558087 -0.000000 0.146682 0.221399 -0.103672 -217.254492 584.290774 -0.000000 0.396348 0.404060 -0.359511
2.910000 38.299603 -205.341823 -0.000000 0.143372 0.230204 -0.103905 -234.454234 606.158569 -0.000000 0.401302 0.393786 -0.359852
2.915000 27.086098 -199.883666 -0.000000 0.140417 0.239506 -0.104130 -249.156162 628.653262 -0.000000 0.405937 0.383332 -0.360309
2.920000 19.131066 -190.014396 -0.000000 0.137967 0.248945 -0.104396 -261.736938 651.878135 -0.000000 0.409966 0.372438 -0.360425
2.925000 13.778851 -177.624155 -0.000000 0.135994 0.258892 -0.104528 -271.380987 676.347765 -0.000000 0.413580 0.361262 -0.360708
2.930000 10.765813 -164.263873 -0.000000 0.134555 0.268881 -0.104575 -279.661765 701.554158 -0.000000 0.416646 0.350054 -0.360810
2.935000 9.018500 -151.078236 -0.000000 0.133649 0.279340 -0.104648 -285.634100 727.979156 -0.000000 0.419089 0.338799 -0.360628
2.940000 7.990559 -138.665229 -0.000000 0.133440 0.289758 -0.104657 -290.494944 755.280337 -0.000000 0.420899 0.327488 -0.360388
2.945000 6.795730 -127.247479 -0.000000 0.133745 0.300457 -0.104881 -292.980821 784.100604 -0.000000 0.422136 0.316022 -0.360340
2.950000 5.042530 -116.812981 -0.000000 0.134585 0.311451 -0.105049 -292.875688 814.566451 -0.000000 0.422741 0.304444 -0.360312
2.955000 2.725218 -107.300139 -0.000000 0.135999 0.322153 -0.105425 -291.268435 846.101516 -0.000000 0.422696 0.292730 -0.360433
2.960000 -0.349896 -98.739645 -0.000000 0.138002 0.333089 -0.105727 -286.991559 878.639462 -0.000000 0.422122 0.281204 -0.361100
2.965000 -4.220838 -91.259389 -0.000000 0.140608 0.344059 -0.106206 -279.236348 911.643355 -0.000000 0.420585 0.269756 -0.360751
